<?xml version="1.0" encoding="utf-8"?>
<!-- Generator: Adobe Illustrator 17.0.1, SVG Export Plug-In . SVG Version: 6.00 Build 0)  -->
<!DOCTYPE svg PUBLIC "-//W3C//DTD SVG 1.1//EN" "http://www.w3.org/Graphics/SVG/1.1/DTD/svg11.dtd">
<svg version="1.1" id="Layer_1" xmlns="http://www.w3.org/2000/svg" xmlns:xlink="http://www.w3.org/1999/xlink" x="0px" y="0px"
	 width="2255.974px" height="325px" viewBox="0 0 2255.974 325" enable-background="new 0 0 2255.974 325" xml:space="preserve">
<g>
	<path fill="#FFFFFF" d="M174,84.561h-73.5v189h-27v-189H0v-24h174V84.561z"/>
	<path fill="#FFFFFF" d="M204.6,273.561v-213h91.2c9.398,0,18.047,1.95,25.95,5.85c7.898,3.9,14.7,9.104,20.4,15.601
		c5.7,6.501,10.148,13.8,13.35,21.899c3.197,8.101,4.8,16.351,4.8,24.75c0,7.402-1.05,14.551-3.15,21.45
		c-2.1,6.9-5.1,13.153-9,18.75c-3.9,5.602-8.602,10.401-14.1,14.4c-5.503,4.003-11.653,6.899-18.45,8.7l51.6,81.6h-30.6l-48.6-76.5
		h-56.4v76.5H204.6z M231.6,173.061h64.5c5.597,0,10.65-1.2,15.15-3.6c4.5-2.4,8.349-5.648,11.55-9.75
		c3.197-4.098,5.7-8.851,7.5-14.25c1.8-5.4,2.7-10.997,2.7-16.801c0-6-1.05-11.648-3.15-16.949c-2.1-5.297-4.903-9.999-8.4-14.101
		c-3.501-4.097-7.603-7.298-12.3-9.6c-4.701-2.297-9.651-3.45-14.85-3.45h-62.7V173.061z"/>
	<path fill="#FFFFFF" d="M401.699,273.561v-213h27v213H401.699z"/>
	<path fill="#FFFFFF" d="M479.697,273.561v-213h88.8c9.398,0,18.047,1.95,25.95,5.85c7.898,3.9,14.7,9.104,20.4,15.601
		c5.7,6.501,10.148,13.8,13.35,21.899c3.197,8.101,4.8,16.351,4.8,24.75c0,8.804-1.5,17.302-4.5,25.5
		c-3,8.203-7.251,15.502-12.75,21.9c-5.503,6.403-12.103,11.503-19.8,15.3c-7.702,3.802-16.251,5.7-25.65,5.7h-63.6v76.5H479.697z
		 M506.697,173.061h62.1c5.597,0,10.65-1.148,15.15-3.45c4.5-2.297,8.349-5.498,11.55-9.6c3.197-4.097,5.7-8.851,7.5-14.25
		c1.8-5.4,2.7-11.101,2.7-17.101c0-6.196-1.05-12-3.15-17.399c-2.1-5.4-4.903-10.097-8.4-14.101c-3.502-3.998-7.604-7.097-12.3-9.3
		c-4.702-2.198-9.651-3.3-14.85-3.3h-60.3V173.061z"/>
	<path fill="#FFFFFF" d="M1038.285,273.561v-213h140.7v24h-113.7v71.1h95.7v22.5h-95.7v95.4H1038.285z"/>
	<path fill="#FFFFFF" d="M1213.182,273.561v-213h27v213H1213.182z"/>
	<path fill="#FFFFFF" d="M1441.48,244.761c-18.802,20.203-40.401,30.3-64.8,30.3c-14.203,0-27.352-3.099-39.45-9.3
		c-12.103-6.197-22.552-14.349-31.35-24.45c-8.804-10.097-15.75-21.646-20.851-34.65c-5.1-12.998-7.649-26.399-7.649-40.199
		c0-14.4,2.498-28.051,7.5-40.95c4.997-12.9,11.896-24.3,20.7-34.2c8.798-9.9,19.298-17.747,31.5-23.55
		c12.196-5.799,25.396-8.7,39.6-8.7c20.597,0,37.547,4.303,50.85,12.9c13.299,8.602,23.447,19.8,30.45,33.6l-20.7,14.4
		c-6.402-12.398-14.901-21.601-25.5-27.601c-10.603-6-22.5-9-35.699-9c-10.801,0-20.602,2.354-29.4,7.05
		c-8.803,4.702-16.303,10.903-22.5,18.601c-6.201,7.701-11.002,16.603-14.4,26.7c-3.402,10.102-5.1,20.55-5.1,31.35
		c0,11.4,1.898,22.153,5.7,32.25c3.797,10.102,9,19.003,15.6,26.7c6.601,7.701,14.4,13.753,23.4,18.149
		c9,4.402,18.797,6.601,29.399,6.601c23.199,0,44.101-11.198,62.7-33.601v-29.399h-45.899v-20.4h68.699v106.2h-22.8V244.761z"/>
	<path fill="#FFFFFF" d="M1676.677,60.561v213h-27v-96.9h-117.3v96.9h-27v-213h27v92.1h117.3v-92.1H1676.677z"/>
	<path fill="#FFFFFF" d="M1881.276,84.561h-73.5v189h-27v-189h-73.5v-24h174V84.561z"/>
	<path fill="#FFFFFF" d="M2056.475,249.561v24h-144.6v-213h141.9v24h-114.9v69h99.9v22.5h-99.9v73.5H2056.475z"/>
	<path fill="#FFFFFF" d="M2093.375,273.561v-213h91.2c9.398,0,18.047,1.95,25.95,5.85c7.898,3.9,14.699,9.104,20.399,15.601
		c5.7,6.501,10.148,13.8,13.351,21.899c3.196,8.101,4.8,16.351,4.8,24.75c0,7.402-1.05,14.551-3.15,21.45
		c-2.1,6.9-5.1,13.153-9,18.75c-3.899,5.602-8.602,10.401-14.1,14.4c-5.503,4.003-11.653,6.899-18.45,8.7l51.6,81.6h-30.6
		l-48.6-76.5h-56.4v76.5H2093.375z M2120.375,173.061h64.5c5.597,0,10.65-1.2,15.15-3.6c4.5-2.4,8.348-5.648,11.55-9.75
		c3.196-4.098,5.7-8.851,7.5-14.25c1.8-5.4,2.7-10.997,2.7-16.801c0-6-1.051-11.648-3.15-16.949c-2.1-5.297-4.903-9.999-8.4-14.101
		c-3.501-4.097-7.603-7.298-12.3-9.6c-4.701-2.297-9.651-3.45-14.85-3.45h-62.7V173.061z"/>
</g>
<path fill="#FFFFFF" d="M826.884,325c-89.603,0-162.5-72.897-162.5-162.5S737.282,0,826.884,0c89.603,0,162.5,72.897,162.5,162.5
	S916.487,325,826.884,325z M826.884,25c-75.817,0-137.5,61.682-137.5,137.5S751.067,300,826.884,300
	c75.818,0,137.5-61.682,137.5-137.5S902.702,25,826.884,25z"/>
<g>
	<path fill="#FFFFFF" d="M808.854,93.842v16.328h-39.531v25.781h36.953v103.984c0,8.017-4.015,12.031-12.031,12.031H773.62
		l-3.438-16.328h15.469c2.283,0,3.438-1.154,3.438-3.438v-79.922h-19.766v23.203c0,25.781-8.594,51.857-25.781,78.203l-16.328-13.75
		c16.61-20.625,24.922-48.984,24.922-85.078V110.17h-23.203V93.842h30.078V56.889h16.328c4.579,0.577,4.861,2.296,0.859,5.156
		v31.797H808.854z M802.839,125.639c13.75-16.61,23.767-40.391,30.078-71.328l18.906,5.156c2.283,2.296,1.423,3.732-2.578,4.297
		l-7.734,25.781h79.922v16.328h-85.078c-7.452,16.046-15.187,28.077-23.203,36.094L802.839,125.639z M875.026,140.248
		c0,4.015,2.001,14.609,6.016,31.797l25.781-27.5l14.609,13.75c0.564,2.873-0.859,3.732-4.297,2.578l-30.938,27.5
		c5.72,16.623,18.329,31.797,37.813,45.547l-12.891,17.188c-29.796-21.767-46.702-56.719-50.703-104.844l-8.594,3.438v103.125
		h-17.188v-97.109l-16.328,6.016l-6.875-15.469c32.079-9.735,59.297-21.767,81.641-36.094l14.609,12.891
		c0.564,2.873-0.859,3.732-4.297,2.578L875.026,140.248z"/>
</g>
</svg>
